<svg width="400" height="800" viewBox="0 0 400 800" fill="none" xmlns="http://www.w3.org/2000/svg">
<rect x="395" y="770" width="4" height="4" fill="#34BE5B"/>
<rect x="315" y="765" width="4" height="4" fill="#A569BD"/>
<rect x="320" y="760" width="4" height="4" fill="#A569BD"/>
<rect x="315" y="177" width="4" height="4" fill="#F15156"/>
<rect x="395" y="146" width="4" height="4" fill="#FFB400"/>
<rect x="395" y="133" width="4" height="4" fill="#A569BD"/>
<rect x="377" y="133" width="4" height="4" fill="#A569BD"/>
<rect x="386" y="133" width="4" height="4" fill="#A569BD"/>
<rect x="390" width="4" height="4" fill="#F15156"/>
<rect x="395" y="103" width="4" height="4" fill="#F15156"/>
<rect x="395" y="93" width="4" height="4" fill="#F15156"/>
<rect x="395" y="93" width="4" height="4" fill="#F15156"/>
<rect x="390" y="88" width="4" height="4" fill="#F15156"/>
<rect x="390" y="78" width="4" height="4" fill="#F15156"/>
<rect x="390" y="68" width="4" height="4" fill="#F15156"/>
<rect x="390" y="58" width="4" height="4" fill="#F15156"/>
<rect x="385" y="93" width="4" height="4" fill="#F15156"/>
<rect x="382" y="146" width="12" height="12" fill="#34BE5B"/>
<rect x="198" y="770" width="4" height="4" fill="#34BE5B"/>
<rect x="1" y="770" width="4" height="4" fill="#34BE5B"/>
<line x1="400" y1="774.5" y2="774.5" stroke="#505A5B"/>
<line x1="400" y1="799.5" y2="799.5" stroke="#505A5B"/>
<line x1="5.5" y1="770" x2="5.5" y2="775" stroke="#505A5B"/>
<line x1="0.5" y1="770" x2="0.5" y2="799" stroke="#505A5B"/>
<line x1="202.5" y1="770" x2="202.5" y2="774" stroke="#505A5B"/>
<line x1="197.5" y1="770" x2="197.5" y2="774" stroke="#505A5B"/>
<line x1="315" y1="181.5" x2="319" y2="181.5" stroke="#505A5B"/>
<line x1="315" y1="176.5" x2="400" y2="176.5" stroke="#505A5B"/>
<line x1="399.5" y1="-2.18557e-08" x2="399.5" y2="799" stroke="#505A5B"/>
<line x1="394.5" x2="394.5" y2="774" stroke="#505A5B"/>
<line x1="197" y1="769.5" x2="203" y2="769.5" stroke="#505A5B"/>
<line x1="399" y1="769.5" y2="769.5" stroke="#505A5B"/>
<line x1="394.5" y1="770" x2="394.5" y2="774" stroke="#505A5B"/>
<line x1="319.5" y1="177" x2="319.5" y2="531" stroke="#505A5B"/>
<line x1="314.5" y1="114" x2="314.5" y2="769" stroke="#505A5B"/>
<line x1="357.5" y1="176" x2="357.5" y2="759" stroke="#505A5B"/>
<line x1="319.5" y1="57" x2="319.5" y2="770" stroke="#505A5B"/>
<line x1="234.5" y1="-2.12222e-08" x2="234.5" y2="138" stroke="#505A5B"/>
<line x1="229.5" y1="-2.09722e-08" x2="229.5" y2="138" stroke="#505A5B"/>
<line x1="314.5" y1="176" x2="314.5" y2="182" stroke="#505A5B"/>
<line x1="394" y1="158.5" x2="320" y2="158.5" stroke="#505A5B"/>
<line x1="394" y1="158.5" x2="320" y2="158.5" stroke="#505A5B"/>
<line x1="394" y1="161.5" x2="320" y2="161.5" stroke="#505A5B"/>
<line x1="399" y1="150.5" x2="394" y2="150.5" stroke="#505A5B"/>
<line x1="399" y1="107.5" x2="394" y2="107.5" stroke="#505A5B"/>
<line x1="399" y1="102.5" x2="394" y2="102.5" stroke="#505A5B"/>
<rect x="395" y="83" width="4" height="4" fill="#F15156"/>
<rect x="385" y="83" width="4" height="4" fill="#F15156"/>
<line x1="399" y1="87.5" x2="385" y2="87.5" stroke="#505A5B"/>
<line x1="399" y1="82.5" x2="385" y2="82.5" stroke="#505A5B"/>
<rect x="395" y="73" width="4" height="4" fill="#F15156"/>
<rect x="385" y="73" width="4" height="4" fill="#F15156"/>
<rect x="385" y="73" width="4" height="4" fill="#F15156"/>
<rect x="385" y="63" width="4" height="4" fill="#F15156"/>
<rect x="395" y="63" width="4" height="4" fill="#F15156"/>
<line x1="399" y1="77.5" x2="385" y2="77.5" stroke="#505A5B"/>
<line x1="399" y1="72.5" x2="384" y2="72.5" stroke="#505A5B"/>
<line x1="399" y1="67.5" x2="384" y2="67.5" stroke="#505A5B"/>
<line x1="399" y1="62.5" x2="360" y2="62.5" stroke="#505A5B"/>
<path d="M399 57.5L365 57" stroke="#505A5B"/>
<line x1="399" y1="97.5" x2="394" y2="97.5" stroke="#505A5B"/>
<line x1="399" y1="97.5" x2="390" y2="97.5" stroke="#505A5B"/>
<line x1="389" y1="97.5" x2="384" y2="97.5" stroke="#505A5B"/>
<line x1="399" y1="92.5" x2="390" y2="92.5" stroke="#505A5B"/>
<line x1="394" y1="92.5" x2="385" y2="92.5" stroke="#505A5B"/>
<line x1="384" y1="101.5" x2="326" y2="101.5" stroke="#505A5B"/>
<line x1="389" y1="97.5" x2="324" y2="97.5" stroke="#505A5B"/>
<line x1="399" y1="145.5" x2="320" y2="145.5" stroke="#505A5B"/>
<line x1="399" y1="137.5" x2="315" y2="137.5" stroke="#505A5B"/>
<line x1="314" y1="137.5" x2="230" y2="137.5" stroke="#505A5B"/>
<line x1="399" y1="132.5" x2="315" y2="132.5" stroke="#505A5B"/>
<line x1="394" y1="4.5" y2="4.5" stroke="#505A5B"/>
<line x1="381.5" y1="158" x2="381.5" y2="145" stroke="#505A5B"/>
<line x1="381.5" y1="158" x2="381.5" y2="132" stroke="#505A5B"/>
<line x1="315" y1="764.5" x2="394" y2="764.5" stroke="#505A5B"/>
<line x1="315" y1="759.5" x2="400" y2="759.5" stroke="#505A5B"/>
<line x1="394" y1="462.5" x2="400" y2="462.5" stroke="#505A5B"/>
<line x1="314" y1="462.5" x2="320" y2="462.5" stroke="#505A5B"/>
<line x1="394" y1="362.5" x2="400" y2="362.5" stroke="#505A5B"/>
<line x1="314" y1="362.5" x2="320" y2="362.5" stroke="#505A5B"/>
<line x1="394" y1="257.5" x2="400" y2="257.5" stroke="#505A5B"/>
<line x1="394" y1="252.5" x2="400" y2="252.5" stroke="#505A5B"/>
<line x1="324.5" y1="764" x2="324.5" y2="759" stroke="#505A5B"/>
<line x1="381.5" y1="162" x2="381.5" y2="158" stroke="#505A5B"/>
<line x1="390.5" y1="137" x2="390.5" y2="133" stroke="#505A5B"/>
<line x1="385.5" y1="138" x2="385.5" y2="132" stroke="#505A5B"/>
<line x1="389.5" y1="98" x2="389.5" y2="58" stroke="#505A5B"/>
<line x1="384.5" y1="132" x2="384.5" y2="57" stroke="#505A5B"/>
<rect x="368" y="133" width="4" height="4" fill="#A569BD"/>
<line x1="372.5" y1="137" x2="372.5" y2="133" stroke="#505A5B"/>
<line x1="367.5" y1="138" x2="367.5" y2="132" stroke="#505A5B"/>
<rect x="359" y="133" width="4" height="4" fill="#A569BD"/>
<line x1="363.5" y1="137" x2="363.5" y2="133" stroke="#505A5B"/>
<line x1="358.5" y1="138" x2="358.5" y2="132" stroke="#505A5B"/>
<rect x="350" y="133" width="4" height="4" fill="#A569BD"/>
<line x1="354.5" y1="137" x2="354.5" y2="133" stroke="#505A5B"/>
<line x1="349.5" y1="138" x2="349.5" y2="132" stroke="#505A5B"/>
<rect x="341" y="133" width="4" height="4" fill="#A569BD"/>
<line x1="345.5" y1="137" x2="345.5" y2="133" stroke="#505A5B"/>
<line x1="340.5" y1="138" x2="340.5" y2="132" stroke="#505A5B"/>
<rect x="332" y="133" width="4" height="4" fill="#A569BD"/>
<line x1="336.5" y1="137" x2="336.5" y2="133" stroke="#505A5B"/>
<line x1="331.5" y1="138" x2="331.5" y2="132" stroke="#505A5B"/>
<rect x="323" y="133" width="4" height="4" fill="#A569BD"/>
<line x1="327.5" y1="137" x2="327.5" y2="133" stroke="#505A5B"/>
<line x1="322.5" y1="138" x2="322.5" y2="132" stroke="#505A5B"/>
<rect x="315" y="133" width="4" height="4" fill="#A569BD"/>
<line x1="319.5" y1="137" x2="319.5" y2="133" stroke="#505A5B"/>
<line x1="314.5" y1="138" x2="314.5" y2="132" stroke="#505A5B"/>
<line x1="376.5" y1="138" x2="376.5" y2="132" stroke="#505A5B"/>
<line x1="389.5" y1="5" x2="389.5" stroke="#505A5B"/>
<line x1="328.5" y1="162" x2="328.5" y2="158" stroke="#505A5B"/>
<rect x="230" y="5" width="4" height="4" fill="#A569BD"/>
<rect x="245" y="5" width="4" height="4" fill="#FFB400"/>
<rect x="250" y="5" width="4" height="4" fill="#FFB400"/>
<rect x="295" y="5" width="4" height="4" fill="#34BE5B"/>
<rect x="230" y="15" width="4" height="4" fill="#A569BD"/>
<line x1="235" y1="9.5" x2="229" y2="9.5" stroke="#505A5B"/>
<line x1="394" y1="9.5" x2="5" y2="9.5" stroke="#505A5B"/>
<line x1="235" y1="14.5" x2="229" y2="14.5" stroke="#505A5B"/>
<line x1="235" y1="14.5" x2="229" y2="14.5" stroke="#505A5B"/>
<line x1="235" y1="19.5" x2="229" y2="19.5" stroke="#505A5B"/>
<rect x="230" y="25" width="4" height="4" fill="#A569BD"/>
<line x1="235" y1="24.5" x2="229" y2="24.5" stroke="#505A5B"/>
<line x1="323" y1="24.5" x2="229" y2="24.5" stroke="#505A5B"/>
<line x1="235" y1="29.5" x2="229" y2="29.5" stroke="#505A5B"/>
<line x1="317" y1="29.5" x2="229" y2="29.5" stroke="#505A5B"/>
<rect x="230" y="45" width="4" height="4" fill="#A569BD"/>
<line x1="235" y1="44.5" x2="229" y2="44.5" stroke="#505A5B"/>
<line x1="235" y1="49.5" x2="229" y2="49.5" stroke="#505A5B"/>
<rect x="230" y="45" width="4" height="4" fill="#A569BD"/>
<line x1="235" y1="44.5" x2="229" y2="44.5" stroke="#505A5B"/>
<line x1="235" y1="49.5" x2="229" y2="49.5" stroke="#505A5B"/>
<rect x="230" y="55" width="4" height="4" fill="#A569BD"/>
<line x1="235" y1="54.5" x2="229" y2="54.5" stroke="#505A5B"/>
<line x1="235" y1="59.5" x2="229" y2="59.5" stroke="#505A5B"/>
<rect x="230" y="55" width="4" height="4" fill="#A569BD"/>
<line x1="235" y1="54.5" x2="229" y2="54.5" stroke="#505A5B"/>
<line x1="235" y1="59.5" x2="229" y2="59.5" stroke="#505A5B"/>
<rect x="230" y="65" width="4" height="4" fill="#A569BD"/>
<line x1="235" y1="64.5" x2="229" y2="64.5" stroke="#505A5B"/>
<line x1="235" y1="69.5" x2="229" y2="69.5" stroke="#505A5B"/>
<rect x="230" y="65" width="4" height="4" fill="#A569BD"/>
<line x1="235" y1="64.5" x2="229" y2="64.5" stroke="#505A5B"/>
<line x1="235" y1="69.5" x2="229" y2="69.5" stroke="#505A5B"/>
<rect x="230" y="75" width="4" height="4" fill="#A569BD"/>
<line x1="235" y1="74.5" x2="229" y2="74.5" stroke="#505A5B"/>
<line x1="235" y1="79.5" x2="229" y2="79.5" stroke="#505A5B"/>
<rect x="230" y="75" width="4" height="4" fill="#A569BD"/>
<line x1="235" y1="74.5" x2="229" y2="74.5" stroke="#505A5B"/>
<line x1="235" y1="79.5" x2="229" y2="79.5" stroke="#505A5B"/>
<rect x="230" y="85" width="4" height="4" fill="#A569BD"/>
<line x1="235" y1="84.5" x2="229" y2="84.5" stroke="#505A5B"/>
<line x1="235" y1="89.5" x2="229" y2="89.5" stroke="#505A5B"/>
<rect x="230" y="85" width="4" height="4" fill="#A569BD"/>
<line x1="235" y1="84.5" x2="229" y2="84.5" stroke="#505A5B"/>
<line x1="277" y1="84.5" x2="229" y2="84.5" stroke="#505A5B"/>
<line x1="235" y1="89.5" x2="229" y2="89.5" stroke="#505A5B"/>
<rect x="230" y="95" width="4" height="4" fill="#A569BD"/>
<line x1="235" y1="94.5" x2="229" y2="94.5" stroke="#505A5B"/>
<line x1="235" y1="99.5" x2="229" y2="99.5" stroke="#505A5B"/>
<rect x="230" y="95" width="4" height="4" fill="#A569BD"/>
<line x1="235" y1="94.5" x2="229" y2="94.5" stroke="#505A5B"/>
<line x1="235" y1="99.5" x2="229" y2="99.5" stroke="#505A5B"/>
<rect x="230" y="95" width="4" height="4" fill="#A569BD"/>
<line x1="235" y1="94.5" x2="229" y2="94.5" stroke="#505A5B"/>
<line x1="235" y1="99.5" x2="229" y2="99.5" stroke="#505A5B"/>
<rect x="230" y="95" width="4" height="4" fill="#A569BD"/>
<line x1="235" y1="94.5" x2="229" y2="94.5" stroke="#505A5B"/>
<line x1="235" y1="99.5" x2="229" y2="99.5" stroke="#505A5B"/>
<line x1="271" y1="99.5" x2="229" y2="99.5" stroke="#505A5B"/>
<rect x="230" y="105" width="4" height="4" fill="#A569BD"/>
<line x1="235" y1="104.5" x2="229" y2="104.5" stroke="#505A5B"/>
<line x1="235" y1="109.5" x2="229" y2="109.5" stroke="#505A5B"/>
<rect x="230" y="105" width="4" height="4" fill="#A569BD"/>
<line x1="235" y1="104.5" x2="229" y2="104.5" stroke="#505A5B"/>
<line x1="235" y1="109.5" x2="229" y2="109.5" stroke="#505A5B"/>
<rect x="230" y="105" width="4" height="4" fill="#A569BD"/>
<line x1="235" y1="104.5" x2="229" y2="104.5" stroke="#505A5B"/>
<line x1="235" y1="109.5" x2="229" y2="109.5" stroke="#505A5B"/>
<rect x="230" y="105" width="4" height="4" fill="#A569BD"/>
<line x1="235" y1="104.5" x2="229" y2="104.5" stroke="#505A5B"/>
<line x1="235" y1="109.5" x2="229" y2="109.5" stroke="#505A5B"/>
<rect x="230" y="115" width="4" height="4" fill="#A569BD"/>
<line x1="235" y1="114.5" x2="229" y2="114.5" stroke="#505A5B"/>
<line x1="235" y1="119.5" x2="229" y2="119.5" stroke="#505A5B"/>
<rect x="230" y="115" width="4" height="4" fill="#A569BD"/>
<line x1="235" y1="114.5" x2="229" y2="114.5" stroke="#505A5B"/>
<line x1="235" y1="119.5" x2="229" y2="119.5" stroke="#505A5B"/>
<rect x="230" y="115" width="4" height="4" fill="#A569BD"/>
<line x1="235" y1="114.5" x2="229" y2="114.5" stroke="#505A5B"/>
<line x1="235" y1="119.5" x2="229" y2="119.5" stroke="#505A5B"/>
<rect x="230" y="115" width="4" height="4" fill="#A569BD"/>
<line x1="235" y1="114.5" x2="229" y2="114.5" stroke="#505A5B"/>
<line x1="235" y1="119.5" x2="229" y2="119.5" stroke="#505A5B"/>
<rect x="230" y="125" width="4" height="4" fill="#A569BD"/>
<line x1="235" y1="124.5" x2="229" y2="124.5" stroke="#505A5B"/>
<line x1="235" y1="129.5" x2="229" y2="129.5" stroke="#505A5B"/>
<rect x="230" y="125" width="4" height="4" fill="#A569BD"/>
<line x1="235" y1="124.5" x2="229" y2="124.5" stroke="#505A5B"/>
<line x1="235" y1="129.5" x2="229" y2="129.5" stroke="#505A5B"/>
<rect x="230" y="125" width="4" height="4" fill="#A569BD"/>
<line x1="235" y1="124.5" x2="229" y2="124.5" stroke="#505A5B"/>
<line x1="235" y1="129.5" x2="229" y2="129.5" stroke="#505A5B"/>
<rect x="230" y="125" width="4" height="4" fill="#A569BD"/>
<line x1="235" y1="124.5" x2="229" y2="124.5" stroke="#505A5B"/>
<line x1="235" y1="129.5" x2="229" y2="129.5" stroke="#505A5B"/>
<line x1="235" y1="133.5" x2="229" y2="133.5" stroke="#505A5B"/>
<rect x="230" y="35" width="4" height="4" fill="#A569BD"/>
<line x1="235" y1="34.5" x2="229" y2="34.5" stroke="#505A5B"/>
<line x1="235" y1="39.5" x2="229" y2="39.5" stroke="#505A5B"/>
<circle cx="337" cy="47" r="29.5" fill="#7289DA" stroke="#505A5B"/>
<circle cx="297" cy="103" r="29.5" fill="#F15156" stroke="#505A5B"/>
<line x1="4.5" y1="10" x2="4.5" y2="4" stroke="#505A5B"/>
<line x1="0.5" y1="800" x2="0.500035" y2="-2.18557e-08" stroke="#505A5B"/>
<line x1="9.5" y1="10" x2="9.5" y2="4" stroke="#505A5B"/>
<line x1="14.5" y1="10" x2="14.5" y2="4" stroke="#505A5B"/>
<line x1="19.5" y1="10" x2="19.5" y2="4" stroke="#505A5B"/>
<line x1="24.5" y1="10" x2="24.5" y2="4" stroke="#505A5B"/>
<line x1="29.5" y1="10" x2="29.5" y2="4" stroke="#505A5B"/>
<line x1="34.5" y1="10" x2="34.5" y2="4" stroke="#505A5B"/>
<line x1="39.5" y1="10" x2="39.5" y2="4" stroke="#505A5B"/>
<line x1="44.5" y1="10" x2="44.5" y2="4" stroke="#505A5B"/>
<line x1="49.5" y1="10" x2="49.5" y2="4" stroke="#505A5B"/>
<line x1="54.5" y1="10" x2="54.5" y2="4" stroke="#505A5B"/>
<line x1="59.5" y1="10" x2="59.5" y2="4" stroke="#505A5B"/>
<line x1="64.5" y1="10" x2="64.5" y2="4" stroke="#505A5B"/>
<line x1="69.5" y1="10" x2="69.5" y2="4" stroke="#505A5B"/>
<line x1="74.5" y1="10" x2="74.5" y2="4" stroke="#505A5B"/>
<line x1="79.5" y1="10" x2="79.5" y2="4" stroke="#505A5B"/>
<line x1="124" y1="7.5" x2="130" y2="7.5" stroke="#505A5B"/>
<line x1="129" y1="6.5" x2="135" y2="6.5" stroke="#505A5B"/>
<line x1="54" y1="6.5" x2="60" y2="6.5" stroke="#505A5B"/>
<line x1="54" y1="6.5" x2="60" y2="6.5" stroke="#505A5B"/>
<line x1="29" y1="7.5" x2="35" y2="7.5" stroke="#505A5B"/>
<line x1="84.5" y1="10" x2="84.5" y2="4" stroke="#505A5B"/>
<line x1="89.5" y1="10" x2="89.5" y2="4" stroke="#505A5B"/>
<line x1="94.5" y1="10" x2="94.5" y2="4" stroke="#505A5B"/>
<line x1="99.5" y1="10" x2="99.5" y2="4" stroke="#505A5B"/>
<line x1="104.5" y1="10" x2="104.5" y2="4" stroke="#505A5B"/>
<line x1="109.5" y1="10" x2="109.5" y2="4" stroke="#505A5B"/>
<line x1="114.5" y1="10" x2="114.5" y2="4" stroke="#505A5B"/>
<line x1="119.5" y1="10" x2="119.5" y2="4" stroke="#505A5B"/>
<line x1="124.5" y1="10" x2="124.5" y2="4" stroke="#505A5B"/>
<line x1="129.5" y1="10" x2="129.5" y2="4" stroke="#505A5B"/>
<line x1="134.5" y1="10" x2="134.5" y2="4" stroke="#505A5B"/>
<line x1="139.5" y1="10" x2="139.5" y2="4" stroke="#505A5B"/>
<line x1="144.5" y1="10" x2="144.5" y2="4" stroke="#505A5B"/>
<line x1="149.5" y1="10" x2="149.5" y2="4" stroke="#505A5B"/>
<line x1="154.5" y1="10" x2="154.5" y2="4" stroke="#505A5B"/>
<line x1="159.5" y1="10" x2="159.5" y2="4" stroke="#505A5B"/>
<line x1="164.5" y1="10" x2="164.5" y2="4" stroke="#505A5B"/>
<line x1="169.5" y1="10" x2="169.5" y2="4" stroke="#505A5B"/>
<line x1="174.5" y1="10" x2="174.5" y2="4" stroke="#505A5B"/>
<line x1="169.5" y1="10" x2="169.5" y2="4" stroke="#505A5B"/>
<line x1="174.5" y1="10" x2="174.5" y2="4" stroke="#505A5B"/>
<line x1="179.5" y1="10" x2="179.5" y2="4" stroke="#505A5B"/>
<line x1="184.5" y1="10" x2="184.5" y2="4" stroke="#505A5B"/>
<line x1="179.5" y1="10" x2="179.5" y2="4" stroke="#505A5B"/>
<line x1="184.5" y1="10" x2="184.5" y2="4" stroke="#505A5B"/>
<line x1="189.5" y1="10" x2="189.5" y2="4" stroke="#505A5B"/>
<line x1="194.5" y1="10" x2="194.5" y2="4" stroke="#505A5B"/>
<line x1="189.5" y1="10" x2="189.5" y2="4" stroke="#505A5B"/>
<line x1="194.5" y1="10" x2="194.5" y2="4" stroke="#505A5B"/>
<line x1="199.5" y1="10" x2="199.5" y2="4" stroke="#505A5B"/>
<line x1="204.5" y1="10" x2="204.5" y2="4" stroke="#505A5B"/>
<line x1="209.5" y1="10" x2="209.5" y2="4" stroke="#505A5B"/>
<line x1="204.5" y1="10" x2="204.5" y2="4" stroke="#505A5B"/>
<line x1="209.5" y1="10" x2="209.5" y2="4" stroke="#505A5B"/>
<line x1="214.5" y1="10" x2="214.5" y2="4" stroke="#505A5B"/>
<line x1="219.5" y1="10" x2="219.5" y2="4" stroke="#505A5B"/>
<line x1="214.5" y1="10" x2="214.5" y2="4" stroke="#505A5B"/>
<line x1="219.5" y1="10" x2="219.5" y2="4" stroke="#505A5B"/>
<line x1="224.5" y1="10" x2="224.5" y2="4" stroke="#505A5B"/>
<line x1="229.5" y1="10" x2="229.5" y2="4" stroke="#505A5B"/>
<line x1="224.5" y1="10" x2="224.5" y2="4" stroke="#505A5B"/>
<line x1="229.5" y1="10" x2="229.5" y2="4" stroke="#505A5B"/>
<line x1="239.5" y1="10" x2="239.5" y2="4" stroke="#505A5B"/>
<line x1="244.5" y1="10" x2="244.5" y2="4" stroke="#505A5B"/>
<line x1="249.5" y1="10" x2="249.5" y2="4" stroke="#505A5B"/>
<line x1="244.5" y1="10" x2="244.5" y2="4" stroke="#505A5B"/>
<line x1="249.5" y1="10" x2="249.5" y2="4" stroke="#505A5B"/>
<line x1="254.5" y1="10" x2="254.5" y2="4" stroke="#505A5B"/>
<line x1="259.5" y1="10" x2="259.5" y2="4" stroke="#505A5B"/>
<line x1="254.5" y1="10" x2="254.5" y2="4" stroke="#505A5B"/>
<line x1="259.5" y1="10" x2="259.5" y2="4" stroke="#505A5B"/>
<line x1="264.5" y1="10" x2="264.5" y2="4" stroke="#505A5B"/>
<line x1="269.5" y1="10" x2="269.5" y2="4" stroke="#505A5B"/>
<line x1="264.5" y1="10" x2="264.5" y2="4" stroke="#505A5B"/>
<line x1="269.5" y1="10" x2="269.5" y2="4" stroke="#505A5B"/>
<line x1="274.5" y1="10" x2="274.5" y2="4" stroke="#505A5B"/>
<line x1="279.5" y1="10" x2="279.5" y2="4" stroke="#505A5B"/>
<line x1="284.5" y1="10" x2="284.5" y2="4" stroke="#505A5B"/>
<line x1="279.5" y1="10" x2="279.5" y2="4" stroke="#505A5B"/>
<line x1="284.5" y1="10" x2="284.5" y2="4" stroke="#505A5B"/>
<line x1="289.5" y1="10" x2="289.5" y2="4" stroke="#505A5B"/>
<line x1="294.5" y1="10" x2="294.5" y2="4" stroke="#505A5B"/>
<line x1="289.5" y1="10" x2="289.5" y2="4" stroke="#505A5B"/>
<line x1="294.5" y1="10" x2="294.5" y2="4" stroke="#505A5B"/>
<line x1="299.5" y1="10" x2="299.5" y2="4" stroke="#505A5B"/>
<line x1="304.5" y1="10" x2="304.5" y2="4" stroke="#505A5B"/>
<line x1="299.5" y1="10" x2="299.5" y2="4" stroke="#505A5B"/>
<line x1="304.5" y1="10" x2="304.5" y2="4" stroke="#505A5B"/>
<line x1="309.5" y1="10" x2="309.5" y2="4" stroke="#505A5B"/>
<line x1="314.5" y1="10" x2="314.5" y2="4" stroke="#505A5B"/>
<line x1="319.5" y1="10" x2="319.5" y2="4" stroke="#505A5B"/>
<line x1="314.5" y1="10" x2="314.5" y2="4" stroke="#505A5B"/>
<line x1="319.5" y1="10" x2="319.5" y2="4" stroke="#505A5B"/>
<line x1="324.5" y1="10" x2="324.5" y2="4" stroke="#505A5B"/>
<line x1="329.5" y1="10" x2="329.5" y2="4" stroke="#505A5B"/>
<line x1="324.5" y1="10" x2="324.5" y2="4" stroke="#505A5B"/>
<line x1="329.5" y1="10" x2="329.5" y2="4" stroke="#505A5B"/>
<line x1="334.5" y1="10" x2="334.5" y2="4" stroke="#505A5B"/>
<line x1="339.5" y1="10" x2="339.5" y2="4" stroke="#505A5B"/>
<line x1="334.5" y1="10" x2="334.5" y2="4" stroke="#505A5B"/>
<line x1="339.5" y1="10" x2="339.5" y2="4" stroke="#505A5B"/>
<line x1="344.5" y1="10" x2="344.5" y2="4" stroke="#505A5B"/>
<line x1="349.5" y1="10" x2="349.5" y2="4" stroke="#505A5B"/>
<line x1="354.5" y1="10" x2="354.5" y2="4" stroke="#505A5B"/>
<line x1="349.5" y1="10" x2="349.5" y2="4" stroke="#505A5B"/>
<line x1="354.5" y1="10" x2="354.5" y2="4" stroke="#505A5B"/>
<line x1="359.5" y1="10" x2="359.5" y2="4" stroke="#505A5B"/>
<line x1="364.5" y1="10" x2="364.5" y2="4" stroke="#505A5B"/>
<line x1="359.5" y1="10" x2="359.5" y2="4" stroke="#505A5B"/>
<line x1="364.5" y1="10" x2="364.5" y2="4" stroke="#505A5B"/>
<line x1="369.5" y1="10" x2="369.5" y2="4" stroke="#505A5B"/>
<line x1="374.5" y1="10" x2="374.5" y2="4" stroke="#505A5B"/>
<line x1="369.5" y1="10" x2="369.5" y2="4" stroke="#505A5B"/>
<line x1="374.5" y1="10" x2="374.5" y2="4" stroke="#505A5B"/>
<line x1="379.5" y1="10" x2="379.5" y2="4" stroke="#505A5B"/>
<line x1="384.5" y1="10" x2="384.5" y2="4" stroke="#505A5B"/>
<line x1="379.5" y1="10" x2="379.5" y2="4" stroke="#505A5B"/>
<line x1="384.5" y1="10" x2="384.5" y2="4" stroke="#505A5B"/>
<line x1="389.5" y1="10" x2="389.5" y2="4" stroke="#505A5B"/>
<line x1="394.5" y1="10" x2="394.5" y2="4" stroke="#505A5B"/>
<line x1="389.5" y1="10" x2="389.5" y2="4" stroke="#505A5B"/>
<line x1="394.5" y1="10" x2="394.5" y2="4" stroke="#505A5B"/>
<rect x="5" y="5" width="4" height="4" fill="#7289DA"/>
<rect x="20" y="5" width="4" height="4" fill="#FFB400"/>
<rect x="40" y="5" width="4" height="4" fill="#34BE5B"/>
<rect x="65" y="5" width="4" height="4" fill="#FF66CC"/>
<rect x="95" y="5" width="4" height="4" fill="#F15156"/>
<rect x="105" y="5" width="4" height="4" fill="#F15156"/>
<rect x="105" y="5" width="4" height="4" fill="#F15156"/>
<rect x="155" y="5" width="4" height="4" fill="#34BE5B"/>
<line x1="39" y1="6.5" x2="45" y2="6.5" stroke="#505A5B"/>
<line x1="64" y1="7.5" x2="70" y2="7.5" stroke="#505A5B"/>
<line x1="154" y1="6.5" x2="160" y2="6.5" stroke="#505A5B"/>
<line x1="159" y1="7.5" x2="165" y2="7.5" stroke="#505A5B"/>
<line x1="254" y1="6.5" x2="260" y2="6.5" stroke="#505A5B"/>
<line x1="259" y1="7.5" x2="265" y2="7.5" stroke="#505A5B"/>
<line x1="304" y1="7.5" x2="310" y2="7.5" stroke="#505A5B"/>
<line x1="314" y1="6.5" x2="320" y2="6.5" stroke="#505A5B"/>
<line x1="324" y1="7.5" x2="330" y2="7.5" stroke="#505A5B"/>
<line x1="334" y1="6.5" x2="340" y2="6.5" stroke="#505A5B"/>
<line x1="344" y1="7.5" x2="350" y2="7.5" stroke="#505A5B"/>
<line x1="354" y1="6.5" x2="360" y2="6.5" stroke="#505A5B"/>
<line x1="364" y1="7.5" x2="370" y2="7.5" stroke="#505A5B"/>
<line x1="374" y1="6.5" x2="380" y2="6.5" stroke="#505A5B"/>
<line x1="384" y1="7.5" x2="390" y2="7.5" stroke="#505A5B"/>
<line x1="294" y1="6.5" x2="300" y2="6.5" stroke="#505A5B"/>
<line x1="400" y1="0.5" y2="0.5" stroke="#505A5B"/>
</svg>
